<svg xmlns="http://www.w3.org/2000/svg" viewBox="0 0 128 128">
  <defs>
    <radialGradient id="metal" cx="35%" cy="24%" r="78%">
      <stop offset="0" stop-color="#f8fafc"/>
      <stop offset="0.52" stop-color="#b7c0cb"/>
      <stop offset="1" stop-color="#465564"/>
    </radialGradient>
    <radialGradient id="globe" cx="38%" cy="28%" r="78%">
      <stop offset="0" stop-color="#f8fbff"/>
      <stop offset="0.62" stop-color="#c9d2dc"/>
      <stop offset="1" stop-color="#7b8794"/>
    </radialGradient>
    <linearGradient id="blue" x1="18" x2="108" y1="20" y2="104">
      <stop offset="0" stop-color="#0b4f86"/>
      <stop offset="0.55" stop-color="#0f67a8"/>
      <stop offset="1" stop-color="#08345f"/>
    </linearGradient>
    <linearGradient id="gold" x1="42" x2="95" y1="72" y2="112">
      <stop offset="0" stop-color="#f8d26a"/>
      <stop offset="1" stop-color="#a97817"/>
    </linearGradient>
    <filter id="shadow" x="-20%" y="-20%" width="140%" height="140%">
      <feDropShadow dx="0" dy="4" stdDeviation="4" flood-color="#07111f" flood-opacity="0.35"/>
    </filter>
  </defs>

  <rect width="128" height="128" rx="24" fill="#eef3f7"/>
  <circle cx="64" cy="67" r="49" fill="url(#metal)" filter="url(#shadow)"/>
  <circle cx="64" cy="67" r="41" fill="url(#globe)" stroke="#0b3765" stroke-width="5"/>
  <path d="M25 67h78M64 28v78M37 39c12 11 43 11 55 0M36 95c13-10 43-10 56 0" fill="none" stroke="#6f7d89" stroke-width="1.8" opacity="0.65"/>
  <path d="M45 65c8-17 24-24 42-18l11 17-9 17-18 2-8 17-27-8 6-18Z" fill="url(#blue)" stroke="#d8bc65" stroke-width="2"/>
  <path d="M24 90c23-4 42-5 65-3" fill="none" stroke="url(#gold)" stroke-width="8" stroke-linecap="round"/>
  <path d="M40 82c18-6 36-10 55-11" fill="none" stroke="#f9dc82" stroke-width="2.5" stroke-linecap="round"/>
  <path d="M73 60c9 1 19 5 27 12-15-1-28-3-42-8 4-3 9-5 15-4Z" fill="#f8fafc" stroke="#0b3765" stroke-width="2"/>
  <path d="M83 61c4 1 8 3 11 6l-18-3c2-2 4-3 7-3Z" fill="#0f67a8"/>
  <path d="M27 32h75v29H27z" fill="#eef3f7" opacity="0.86"/>
  <text x="64" y="55" text-anchor="middle" font-family="Arial, Helvetica, sans-serif" font-size="37" font-weight="900" fill="#0b4f86" stroke="#062a4e" stroke-width="1.5">ONCF</text>
</svg>
